<svg width="154" height="36" viewBox="0 0 154 36" fill="none" xmlns="http://www.w3.org/2000/svg">
<path d="M62.2699 29L63.5004 23.9023H54.1136C51.6996 23.8672 50.891 22.4844 51.6879 19.7539C51.9574 18.7578 52.5258 17.9141 53.3929 17.2227C54.2601 16.4844 55.3968 16.0918 56.8031 16.0449H59.6859L58.139 22.25H63.9047L68.1058 5.26953H62.4808L60.9164 11.1582H56.3812C52.139 11.416 49.0804 13.3086 47.2054 16.8359C45.8109 19.9297 45.6 22.6895 46.5726 25.1152C47.0179 26.2402 47.6742 27.1309 48.5414 27.7871C49.4203 28.4434 50.7093 28.8242 52.4086 28.9297L62.2699 29Z" fill="black"/>
<path d="M64.6429 29L69.0726 11.0352H74.8734L70.514 29H64.6429ZM69.4418 9.48828L70.5316 5.26953H76.3148L75.225 9.48828H69.4418Z" fill="black"/>
<path d="M79.0043 35.4688H82.9066C84.4886 35.4688 86.0121 34.8652 87.4769 33.6582C88.9418 32.4395 89.8734 31.0273 90.2718 29.4219L91.1683 25.9238L93.2074 17.4863H87.6L86.0355 23.8672H82.5902C80.1761 23.832 79.3675 22.4492 80.1644 19.7188C80.434 18.7227 81.0023 17.8789 81.8695 17.1875C82.7367 16.4492 83.8734 16.0566 85.2797 16.0098H93.559L94.7367 11.123H84.8578C80.6156 11.3809 77.557 13.2734 75.682 16.8008C74.2875 19.8945 74.0765 22.6543 75.0492 25.0801C75.4945 26.2051 76.1508 27.0957 77.0179 27.752C77.8968 28.4082 79.1859 28.7891 80.8851 28.8945L84.805 28.9297L84.6996 29.4219C84.5941 29.7266 84.3773 29.9961 84.0492 30.2305C83.7093 30.4531 83.3754 30.5645 83.0472 30.5645H80.059L79.0043 35.4688Z" fill="black"/>
<path d="M93.0492 29L97.4789 11.0352H103.28L98.9203 29H93.0492ZM97.848 9.48828L98.9379 5.26953H104.721L103.631 9.48828H97.848Z" fill="black"/>
<path d="M103.86 27.1719C104.762 28.3906 105.998 29 107.569 29H111.401L112.596 24.0605H109.643C109.327 24.0605 109.08 23.9434 108.905 23.709C108.729 23.4746 108.659 23.2109 108.694 22.918C108.729 22.7539 108.828 22.3379 108.993 21.6699C109.157 20.9902 109.338 20.2402 109.537 19.4199C109.737 18.5879 109.912 17.8613 110.065 17.2402C110.217 16.6074 110.293 16.291 110.293 16.291H114.477L115.743 11.1055H111.541C111.577 10.9766 111.834 9.97461 112.315 8.09961C112.795 6.21289 113.036 5.26953 113.036 5.26953H107.34L102.998 22.918C102.659 24.5352 102.946 25.9531 103.86 27.1719Z" fill="black"/>
<path d="M131.352 29L135.659 11.1582H125.463C121.221 11.416 118.162 13.3086 116.287 16.8359C114.893 19.9297 114.682 22.6895 115.655 25.1152C116.1 26.2402 116.756 27.1309 117.623 27.7871C118.502 28.4434 119.791 28.8242 121.491 28.9297L131.352 29ZM126.887 23.9023H123.196C120.782 23.8672 119.973 22.4844 120.77 19.7539C121.039 18.7578 121.608 17.9141 122.475 17.2227C123.366 16.4609 124.543 16.0684 126.008 16.0449H128.733L128.293 17.9258H128.311L126.887 23.9023Z" fill="black"/>
<path d="M133.76 29H148.895L149.932 24.7285H142.602L152.235 15.166L153.219 11.123H138.084L137.065 15.3594H144.395L134.586 25.5547L133.76 29Z" fill="black"/>
<path d="M27.0859 8.91413C28.1475 9.97571 29.896 9.97571 30.9576 8.91413C32.0192 7.85255 32.0192 6.10407 30.9576 5.04249C29.896 3.98091 28.1475 3.98091 27.0859 5.04249C25.9619 6.16652 25.9619 7.85255 27.0859 8.91413Z" fill="url(#paint0_linear_172_642)"/>
<path d="M16.9072 15.2836L4.91761 27.2108C3.85603 28.2723 3.85603 30.0208 4.91761 31.0824C5.97918 32.144 7.72767 32.144 8.78925 31.0824L13.8474 26.0243C14.2845 25.7121 14.8465 25.7745 15.2212 26.1492C15.6583 26.5863 15.6583 27.2732 15.2212 27.6479L11.5369 31.3322C10.4753 32.3938 10.4753 34.1422 11.5369 35.2038C12.5984 36.2654 14.3469 36.2654 15.4085 35.2038L25.7121 24.9003C26.1492 24.4631 26.7736 24.4631 27.2108 24.9003C27.6479 25.3374 27.6479 25.9618 27.2108 26.399L26.5863 27.0234C25.5247 28.085 25.5247 29.8335 26.5863 30.8951C27.6479 31.9566 29.3964 31.9566 30.4579 30.8951L34.7667 26.5863C35.8283 25.5247 35.8283 23.7762 34.7667 22.7147C33.7051 21.6531 31.9566 21.6531 30.8951 22.7147L30.2706 23.3391C29.8335 23.7762 29.209 23.7762 28.7719 23.3391C28.3348 22.902 28.3348 22.2775 28.7719 21.8404L35.2038 15.4085C36.2654 14.3469 36.2654 12.5984 35.2038 11.5369C34.1422 10.4753 32.3938 10.4753 31.3322 11.5369L18.281 24.588C17.8439 25.0252 17.157 24.9627 16.7823 24.588C16.4076 24.2134 16.3452 23.6513 16.6574 23.2142L24.9627 14.8465C26.0243 13.7849 26.0243 12.0364 24.9627 10.9748C23.9011 9.91327 22.1526 9.91327 21.0911 10.9748L19.5299 12.536C19.0928 12.7858 18.5932 12.7233 18.2186 12.3487C17.7814 11.9115 17.7814 11.2246 18.2186 10.85L24.4007 4.66782C25.4623 3.60624 25.4623 1.85776 24.4007 0.796184C23.3391 -0.265395 21.5906 -0.265395 20.5291 0.796184L10.2879 11.1622C9.85082 11.5993 9.22637 11.5993 8.78925 11.1622C8.35213 10.7251 8.35213 10.1006 8.78925 9.66349L11.6618 6.79098C12.7233 5.7294 12.7233 3.98092 11.6618 2.91934C10.6002 1.85776 8.85169 1.85776 7.79011 2.91934L1.2333 9.47615C0.171726 10.5377 0.171726 12.2862 1.2333 13.3478C2.29488 14.4094 4.04337 14.4094 5.10494 13.3478L5.7294 12.7233C6.16652 12.2862 6.79098 12.2862 7.2281 12.7233C7.66522 13.1604 7.66522 13.7849 7.2281 14.222L0.796184 20.6539C-0.265395 21.7155 -0.265395 23.464 0.796184 24.5256C1.85776 25.5872 3.60624 25.5872 4.66782 24.5256L15.2212 13.9722C15.6583 13.5351 16.3452 13.5976 16.7199 13.9722C17.0321 14.3469 17.0945 14.8465 16.9072 15.2836Z" fill="url(#paint1_linear_172_642)"/>
<defs>
<linearGradient id="paint0_linear_172_642" x1="34.6211" y1="-1.37631" x2="6.93705" y2="39.8376" gradientUnits="userSpaceOnUse">
<stop stop-color="#1558E5"/>
<stop offset="0.0001" stop-color="#2455D8"/>
<stop offset="1" stop-color="#EF262C"/>
</linearGradient>
<linearGradient id="paint1_linear_172_642" x1="32.1425" y1="-3.0413" x2="4.4582" y2="38.1729" gradientUnits="userSpaceOnUse">
<stop offset="0.25" stop-color="#1558E5"/>
<stop offset="1" stop-color="#EF262C"/>
</linearGradient>
</defs>
</svg>
